<?xml version="1.0" standalone="yes"?>
<svg xmlns="http://www.w3.org/2000/svg" width="400" height="400">
<path style="fill:#ffffff; stroke:none;" d="M0 0L0 400L400 400L400 0L0 0z"/>
<path style="fill:#909ccd; stroke:none;" d="M101 216L101 217L104 217L101 216z"/>
<path style="fill:#5f5f5f; stroke:none;" d="M104.667 216.333L105.333 216.667L104.667 216.333z"/>
<path style="fill:#1340f0; stroke:none;" d="M106 216.428C88.2206 218.551 71.027 220.635 57 233.174C31.5916 255.887 28.9061 300.367 58.2855 321.441C74.3841 332.988 95.91 335.059 115 332.714C133.041 330.497 151.356 321.226 161.62 305.961C184.078 272.556 170.094 228.139 130 218.654C122.648 216.915 113.52 215.53 106 216.428z"/>
<path style="fill:#5f5f5f; stroke:none;" d="M112 216L113 217L112 216z"/>
<path style="fill:#909ccd; stroke:none;" d="M113 216L113 217L116 217L113 216M92 217L93 218L92 217z"/>
<path style="fill:#5f5f5f; stroke:none;" d="M93 217L94 218L93 217z"/>
<path style="fill:#909ccd; stroke:none;" d="M124 217L125 218L124 217M87 218L88 219L87 218M129 218L130 219L129 218M83 219L84 220L83 219z"/>
<path style="fill:#0a0a0a; stroke:none;" d="M81 235L84 234C82.3467 236.412 78.6196 239.06 83 240L78 246L81 246L77 249L77 253L80 252L80 257L76 256L78 261C75.2131 262.796 75.6042 264.144 77 267L74 268L73 274L75 276L73 285L72 285L72 281L71 281L71 290L75 290L79 296L76 289L77 289C79.1614 295.305 84.5796 298.841 91 300L87 316L93 325L94 325C94.394 321.092 95.8447 316.033 91 315L97 312C96.2854 317.659 95.3514 321.898 100 326L100 316L101 316L104 321L103 303L112 303L112 302L111 300C107.749 299.407 105.145 300.659 101.961 300.404C88.176 299.298 88.1879 289.72 86 279L115 282L115 280L88 275L88 273L117 276L88 266L118 271C113.808 263.75 100.45 263.835 93 262L93 260L120 264C114.618 257.838 102.9 256.164 95 256L95 253L121 258C116.739 251.01 103.459 249.951 96 249L96 247C104.737 245.558 113.799 250.332 122 253C120.635 245.114 104.787 243.145 98 243L98 240L123 245L123 243L99 235C107.535 233.039 115.976 237.389 124 240C121.546 232.207 108.124 230.563 101 230L102 222C92.6364 222.402 83.9812 225.096 81 235z"/>
<path style="fill:#ffffff; stroke:none;" d="M102 224L105 223L102 224z"/>
<path style="fill:#0a0a0a; stroke:none;" d="M105 222L103 226L109 224L105 222z"/>
<path style="fill:#909ccd; stroke:none;" d="M141 222L142 223L141 222M101 223L101 224L101 225L104 224L104 223L101 223M109 223L107 226L109 223z"/>
<path style="fill:#ffffff; stroke:none;" d="M101 225C102.078 231.465 117.897 234.946 124 236L124 240L100 234L100 236L124 243L124 245L98 240C101.504 245.466 116.645 247.53 123 249L122 253L97 247L97 249L121 255L121 259C113.16 256.792 103.112 252.248 95 254L95 255C101.706 257.121 118.597 257.063 119 266L94 260C95.6389 262.348 96.5563 262.429 99 261C104.264 266.438 115.436 263.859 118 272L89 267L89 268C97.8387 269.665 110.599 270.049 117 277L90 273L90 274C97.5802 276.13 111.727 275.61 116 283L114 284C107.584 282.339 85.4842 272.911 88 285L95 283C93.4012 297.413 106.442 295.036 113 304L103 303L104 321L102 321L102 323L106 324L104 322L107 315L107 314L103 313C104.393 310.213 106.819 308.726 106 312C109.184 311.099 110.295 311.114 112 314L108 314L112 324L107 324L105 326L105 327C114.267 327 124.083 326.829 132 321.356C158.104 303.309 160.819 255.292 134 236L139 245L139 249L135 248L138 253L133 253L136 260L133 259L135 266L131 266L133 272L130 271L133 276L129 276L132 282L131 283L126 283L131 287L122 289L121 270L122 270L122 272C124.249 267.768 123.349 263.589 123.894 259C125.259 247.5 131.055 232.25 117.999 225.14C112.185 221.973 107.048 225.931 101 225z"/>
<path style="fill:#909ccd; stroke:none;" d="M113 223L114 224L113 223M143 223L144 224L143 223M71 224L72 225L71 224z"/>
<path style="fill:#5f5f5f; stroke:none;" d="M85 224L85 229L86 229L85 224M103 224L104 225L103 224M117 224L118 225L117 224z"/>
<path style="fill:#909ccd; stroke:none;" d="M144 224L145 225L144 224M69 225L70 226L69 225M82 225L84 227L82 225z"/>
<path style="fill:#ffffff; stroke:none;" d="M83 225L84 226L83 225M85 225L86 226L85 225z"/>
<path style="fill:#5f5f5f; stroke:none;" d="M106 225L107 226L106 225M119 225L120 226L119 225z"/>
<path style="fill:#909ccd; stroke:none;" d="M146 225L147 226L146 225z"/>
<path style="fill:#ffffff; stroke:none;" d="M92 324C91.3603 319.949 89.8498 318.352 86 317C87.5015 311.383 93.8716 299.015 84 299L84 297L82 298L78 294L78 295L80 295L80 296L75 291L74 290C69.3074 288.55 70.2634 284.042 71 280L73 282L75 277L76 272L76 271L77 267L78 260L75 259L76 255L79 256L80 252L77 253L76 249L81 248L77 246L82 242L79 240L84 236L84 235L80 234L80 232L85 226C73.5071 227.072 65.6369 237.312 60.6404 247C47.9214 271.661 61.7626 318.607 92 324z"/>
<path style="fill:#5f5f5f; stroke:none;" d="M120 226L122 228L120 226z"/>
<path style="fill:#0a0a0a; stroke:none;" d="M121 226C133.327 246.835 117.222 267.027 122 289L130 285L126 282L131 282L128 276L132 276L129 273L129 272L133 271L131 265L135 265L132 260L133 259L136 260L133 253L137 254L134 247L139 248L135 244C136.31 235.139 128.592 228.878 121 226z"/>
<path style="fill:#909ccd; stroke:none;" d="M64 227L65 228L64 227M77 227L78 228L77 227M122 228L123 229L122 228M61 229L62 230L61 229M101 229L102 230L101 229z"/>
<path style="fill:#5f5f5f; stroke:none;" d="M60 230L61 231L60 230z"/>
<path style="fill:#909ccd; stroke:none;" d="M83 230L84 231L83 230z"/>
<path style="fill:#5f5f5f; stroke:none;" d="M105.667 230.333L106.333 230.667L105.667 230.333z"/>
<path style="fill:#909ccd; stroke:none;" d="M58 231L59 232L58 231z"/>
<path style="fill:#5f5f5f; stroke:none;" d="M72 231L73 232L72 231M81 231L82 232L81 231M111 231L112 232L111 231z"/>
<path style="fill:#909ccd; stroke:none;" d="M125.333 231.667L125.667 232.333L125.333 231.667M156 231L157 232L156 231M57 232L58 233L57 232M71 232L72 233L71 232z"/>
<path style="fill:#5f5f5f; stroke:none;" d="M80 232L81 233L80 232M114 232L115 233L114 232z"/>
<path style="fill:#909ccd; stroke:none;" d="M157 232L158 233L157 232M80 233L81 234L80 233z"/>
<path style="fill:#5f5f5f; stroke:none;" d="M115 233L116 234L115 233z"/>
<path style="fill:#909ccd; stroke:none;" d="M158 233L159 234L158 233M69 234L70 235L69 234z"/>
<path style="fill:#5f5f5f; stroke:none;" d="M83 234L84 235L83 234z"/>
<path style="fill:#909ccd; stroke:none;" d="M105 234L106 235L105 234z"/>
<path style="fill:#5f5f5f; stroke:none;" d="M106 234L107 235L106 234z"/>
<path style="fill:#909ccd; stroke:none;" d="M118 234L119 235L118 234M159 234L160 235L159 234M68 235L69 236L68 235z"/>
<path style="fill:#5f5f5f; stroke:none;" d="M99 235L100 236L99 235M110 235L111 236L110 235z"/>
<path style="fill:#909ccd; stroke:none;" d="M67 236L68 237L67 236M82 236L83 237L82 236z"/>
<path style="fill:#5f5f5f; stroke:none;" d="M101 236L101 237L105 237L101 236z"/>
<path style="fill:#909ccd; stroke:none;" d="M105 236L106 237L105 236z"/>
<path style="fill:#5f5f5f; stroke:none;" d="M113 236L114 237L113 236z"/>
<path style="fill:#909ccd; stroke:none;" d="M123 236L124 237L123 236M135 236L136 237L135 236M66 237L67 238L66 237z"/>
<path style="fill:#5f5f5f; stroke:none;" d="M80 237L81 238L80 237M107 237L108 238L107 237M116 237L117 238L116 237M126 237L127 238L126 237z"/>
<path style="fill:#909ccd; stroke:none;" d="M127 237L126 240L127 237z"/>
<path style="fill:#5f5f5f; stroke:none;" d="M134 237L135 238L134 237M136 237L137 238L136 237M111 238L112 239L111 238z"/>
<path style="fill:#909ccd; stroke:none;" d="M118 238L119 239L118 238z"/>
<path style="fill:#5f5f5f; stroke:none;" d="M119 238L120 239L119 238M79 239L80 240L79 239M114 239L115 240L114 239M122 239L123 240L122 239M127 239L126 241L128 241L127 239z"/>
<path style="fill:#909ccd; stroke:none;" d="M135 239L136 240L135 239M138 239L139 240L138 239z"/>
<path style="fill:#5f5f5f; stroke:none;" d="M80 240L81 241L80 240z"/>
<path style="fill:#909ccd; stroke:none;" d="M81 240L82 241L81 240z"/>
<path style="fill:#5f5f5f; stroke:none;" d="M82 240L83 241L82 240z"/>
<path style="fill:#909ccd; stroke:none;" d="M103 240L104 241L103 240z"/>
<path style="fill:#5f5f5f; stroke:none;" d="M104 240L105 241L104 240z"/>
<path style="fill:#909ccd; stroke:none;" d="M117 240L118 241L117 240z"/>
<path style="fill:#5f5f5f; stroke:none;" d="M135 240L136 241L135 240z"/>
<path style="fill:#909ccd; stroke:none;" d="M139 240L140 241L139 240M63 241L64 242L63 241M108 241L109 242L108 241z"/>
<path style="fill:#5f5f5f; stroke:none;" d="M109 241L110 242L109 241M120 241L121 242L120 241z"/>
<path style="fill:#909ccd; stroke:none;" d="M126 241L127 242L126 241M48 242L49 243L48 242M81 242L82 243L81 242M98 242L99 243L98 242M110 242L111 243L110 242z"/>
<path style="fill:#5f5f5f; stroke:none;" d="M121 242L122 243L121 242M134 242L135 243L134 242z"/>
<path style="fill:#909ccd; stroke:none;" d="M140 242L141 243L140 242z"/>
<path style="fill:#5f5f5f; stroke:none;" d="M79 243L80 244L79 243M113 243L114 244L113 243z"/>
<path style="fill:#909ccd; stroke:none;" d="M123.333 243.667L123.667 244.333L123.333 243.667z"/>
<path style="fill:#5f5f5f; stroke:none;" d="M135 243L136 244L135 243z"/>
<path style="fill:#909ccd; stroke:none;" d="M165 243L166 244L165 243z"/>
<path style="fill:#5f5f5f; stroke:none;" d="M107 244L108 245L107 244M116 244L117 245L116 244M126 244L127 245L126 244z"/>
<path style="fill:#909ccd; stroke:none;" d="M46 245L47 246L46 245M61 245L62 246L61 245z"/>
<path style="fill:#5f5f5f; stroke:none;" d="M77 245L78 246L77 245M111 245L112 246L111 245M119 245L120 246L119 245z"/>
<path style="fill:#909ccd; stroke:none;" d="M122 245L123 246L122 245M137.667 245.333L138.333 245.667L137.667 245.333z"/>
<path style="fill:#5f5f5f; stroke:none;" d="M78 246L79 247L78 246M80 246L81 247L80 246M97 246L97 247L101 247L97 246M103 246L104 247L103 246M114 246L115 247L114 246z"/>
<path style="fill:#909ccd; stroke:none;" d="M60 247L61 248L60 247z"/>
<path style="fill:#5f5f5f; stroke:none;" d="M96.3333 247.667L96.6667 248.333L96.3333 247.667M105 247L106 248L105 247M117 247L118 248L117 247z"/>
<path style="fill:#909ccd; stroke:none;" d="M134.667 247.333L135.333 247.667L134.667 247.333z"/>
<path style="fill:#5f5f5f; stroke:none;" d="M136.667 247.333L137.333 247.667L136.667 247.333M167 247L168 248L167 247z"/>
<path style="fill:#909ccd; stroke:none;" d="M44 248L45 249L44 248z"/>
<path style="fill:#5f5f5f; stroke:none;" d="M59 248L60 249L59 248M80 248L81 249L80 248z"/>
<path style="fill:#909ccd; stroke:none;" d="M107 248L108 249L107 248M120 248L121 249L120 248z"/>
<path style="fill:#5f5f5f; stroke:none;" d="M134.333 248.667L134.667 249.333L134.333 248.667M138 248L139 249L138 248z"/>
<path style="fill:#909ccd; stroke:none;" d="M144 248L145 249L144 248M168 248L169 249L168 248z"/>
<path style="fill:#5f5f5f; stroke:none;" d="M76.3333 249.667L76.6667 250.333L76.3333 249.667M98.6667 249.333L99.3333 249.667L98.6667 249.333z"/>
<path style="fill:#909ccd; stroke:none;" d="M100 249L101 250L100 249z"/>
<path style="fill:#5f5f5f; stroke:none;" d="M102 249L103 250L102 249M111 249L112 250L111 249z"/>
<path style="fill:#909ccd; stroke:none;" d="M122.333 249.667L122.667 250.333L122.333 249.667M125 249L126 250L125 249M43 250L44 251L43 250M106 250L107 251L106 250M114 250L115 251L114 250z"/>
<path style="fill:#5f5f5f; stroke:none;" d="M125 250L126 251L125 250z"/>
<path style="fill:#909ccd; stroke:none;" d="M145 250L146 251L145 250M271 250C271.028 257.973 273.343 258.994 281 259L281 258L272 258L271 250z"/>
<path style="fill:#1340f0; stroke:none;" d="M272 250L272 258L281 258L281 283L272 283C272.009 285.424 271.435 289.257 273.603 290.972C275.877 292.771 280.305 292 283 292C289.79 292 308.007 295.236 313.397 290.972C315.565 289.257 314.991 285.424 315 283L305 283L305 250L272 250z"/>
<path style="fill:#909ccd; stroke:none;" d="M58 251L59 252L58 251z"/>
<path style="fill:#5f5f5f; stroke:none;" d="M109 251L110 252L109 251z"/>
<path style="fill:#909ccd; stroke:none;" d="M110 251L111 252L110 251M117 251L118 252L117 251z"/>
<path style="fill:#5f5f5f; stroke:none;" d="M78 252L79 253L78 252M111 252L112 253L111 252z"/>
<path style="fill:#909ccd; stroke:none;" d="M119 252L120 253L119 252z"/>
<path style="fill:#5f5f5f; stroke:none;" d="M120 252L121 253L120 252z"/>
<path style="fill:#909ccd; stroke:none;" d="M137 252L138 253L137 252M79 253L80 254L79 253z"/>
<path style="fill:#5f5f5f; stroke:none;" d="M95 253L96 254L95 253z"/>
<path style="fill:#909ccd; stroke:none;" d="M99 253L100 254L99 253z"/>
<path style="fill:#5f5f5f; stroke:none;" d="M100 253L101 254L100 253M114 253L115 254L114 253z"/>
<path style="fill:#909ccd; stroke:none;" d="M134 253L135 254L134 253z"/>
<path style="fill:#5f5f5f; stroke:none;" d="M79 254L79 257L80 257L79 254z"/>
<path style="fill:#909ccd; stroke:none;" d="M104 254L105 255L104 254z"/>
<path style="fill:#5f5f5f; stroke:none;" d="M105 254L106 255L105 254M117 254L118 255L117 254z"/>
<path style="fill:#909ccd; stroke:none;" d="M170 254L171 255L170 254M41 255L42 256L41 255M76 255L77 256L76 255z"/>
<path style="fill:#5f5f5f; stroke:none;" d="M95 255L96 256L95 255M108 255L109 256L108 255M120 255L121 256L120 255z"/>
<path style="fill:#909ccd; stroke:none;" d="M124 255L125 256L124 255M147 255L148 256L147 255M75 256L76 257L75 256M78 256L79 257L78 256z"/>
<path style="fill:#5f5f5f; stroke:none;" d="M101 256L102 257L101 256z"/>
<path style="fill:#909ccd; stroke:none;" d="M111 256L112 257L111 256M148 256L149 257L148 256z"/>
<path style="fill:#5f5f5f; stroke:none;" d="M75.3333 257.667L75.6667 258.333L75.3333 257.667M105 257L106 258L105 257M115 257L116 258L115 257M124.333 257.667L124.667 258.333L124.333 257.667M109 258L110 259L109 258z"/>
<path style="fill:#909ccd; stroke:none;" d="M119 258L120 259L119 258z"/>
<path style="fill:#5f5f5f; stroke:none;" d="M120 258L121 259L120 258z"/>
<path style="fill:#909ccd; stroke:none;" d="M171 258L172 259L171 258M39 259L40 260L39 259M56 259L57 260L56 259z"/>
<path style="fill:#5f5f5f; stroke:none;" d="M94 259L94 260L97 260L94 259z"/>
<path style="fill:#909ccd; stroke:none;" d="M113 259L114 260L113 259M124 259L123 263L124 263L124 259M149 259L150 260L149 259z"/>
<path style="fill:#5f5f5f; stroke:none;" d="M93.3333 260.667L93.6667 261.333L93.3333 260.667M102 260L103 261L102 260z"/>
<path style="fill:#909ccd; stroke:none;" d="M116 260L117 261L116 260M132 260L133 261L132 260z"/>
<path style="fill:#5f5f5f; stroke:none;" d="M75 261L76 262L75 261z"/>
<path style="fill:#909ccd; stroke:none;" d="M98 261L98 263L100 263L98 261z"/>
<path style="fill:#5f5f5f; stroke:none;" d="M106 261L107 262L106 261M118 261L119 262L118 261M124 261L124 264L125 264L124 261M94 262L95 263L94 262z"/>
<path style="fill:#909ccd; stroke:none;" d="M95 262L96 263L95 262M107 262L108 263L107 262z"/>
<path style="fill:#5f5f5f; stroke:none;" d="M119 262L120 263L119 262M133 262L134 263L133 262M182 262L183 263L182 262z"/>
<path style="fill:#1340f0; stroke:none;" d="M182 270L192 270L192 283L182 283L182 292L224 292L224 283L216 283C216.177 268.035 234.944 267.226 235 283L226 283C226.009 285.424 225.435 289.257 227.603 290.972C232.993 295.236 251.21 292 258 292C260.695 292 265.123 292.771 267.397 290.972C269.565 289.257 268.991 285.424 269 283L258 283C258 278.358 259.291 271.375 256.258 267.479C248.197 257.129 224.801 261.424 216 268L216 262C206.127 262 182.155 256.895 182 270z"/>
<path style="fill:#909ccd; stroke:none;" d="M227 262L228 263L227 262z"/>
<path style="fill:#5f5f5f; stroke:none;" d="M228 262L229 263L228 262z"/>
<path style="fill:#909ccd; stroke:none;" d="M245.667 262.333L246.333 262.667L245.667 262.333M316 262L317 263L316 262z"/>
<path style="fill:#5f5f5f; stroke:none;" d="M317 262L317 263L362 263C350.299 258.09 329.742 262 317 262z"/>
<path style="fill:#909ccd; stroke:none;" d="M365 262L366 263L365 262z"/>
<path style="fill:#5f5f5f; stroke:none;" d="M366 262L366 263L397 263L366 262z"/>
<path style="fill:#909ccd; stroke:none;" d="M38 263L39 264L38 263z"/>
<path style="fill:#5f5f5f; stroke:none;" d="M100 263L101 264L100 263z"/>
<path style="fill:#909ccd; stroke:none;" d="M111 263L112 264L111 263M150 263L151 264L150 263z"/>
<path style="fill:#5f5f5f; stroke:none;" d="M223 263L224 264L223 263z"/>
<path style="fill:#909ccd; stroke:none;" d="M250 263L251 264L250 263z"/>
<path style="fill:#1340f0; stroke:none;" d="M316 263L316 270C328.875 270.001 339.766 279.929 346 291C337.64 292.46 331.165 282.348 322.109 287.318C315.518 290.935 319.741 296.552 325.004 298.225C333.552 300.943 346.409 301.553 355 298.775C372.337 293.17 377.396 270.015 397 270L397 263L365 263L365 270L373 270L364 279L363 279L355 270L362 270L362 263L316 263z"/>
<path style="fill:#909ccd; stroke:none;" d="M362 263L362 270L363 270L362 263M105 264L106 265L105 264z"/>
<path style="fill:#5f5f5f; stroke:none;" d="M114 264L115 265L114 264M119 264L120 265L119 264M76 265L77 266L76 265M108.667 265.333L109.333 265.667L108.667 265.333z"/>
<path style="fill:#909ccd; stroke:none;" d="M118 265L119 266L118 265M131 265L132 266L131 265z"/>
<path style="fill:#5f5f5f; stroke:none;" d="M134 265L135 266L134 265z"/>
<path style="fill:#909ccd; stroke:none;" d="M172 265L172 268L173 268L172 265z"/>
<path style="fill:#5f5f5f; stroke:none;" d="M219 265L220 266L219 265z"/>
<path style="fill:#909ccd; stroke:none;" d="M88.6667 266.333L89.3333 266.667L88.6667 266.333z"/>
<path style="fill:#5f5f5f; stroke:none;" d="M90 266L91 267L90 266M92 266L92 267L97 267L92 266M112 266L113 267L112 266z"/>
<path style="fill:#909ccd; stroke:none;" d="M75 267L76 268L75 267z"/>
<path style="fill:#5f5f5f; stroke:none;" d="M88 267L89 268L88 267z"/>
<path style="fill:#909ccd; stroke:none;" d="M101 267L102 268L101 267z"/>
<path style="fill:#5f5f5f; stroke:none;" d="M102 267L103 268L102 267M115 267L116 268L115 267z"/>
<path style="fill:#909ccd; stroke:none;" d="M151 267L152 268L151 267M37 268L38 269L37 268M105 268L106 269L105 268z"/>
<path style="fill:#5f5f5f; stroke:none;" d="M117 268L118 269L117 268z"/>
<path style="fill:#909ccd; stroke:none;" d="M119 268L120 269L119 268M123 268L124 269L123 268z"/>
<path style="fill:#5f5f5f; stroke:none;" d="M172 268L173 269L172 268M96 269L97 270L96 269z"/>
<path style="fill:#909ccd; stroke:none;" d="M97 269L98 270L97 269M108 269L109 270L108 269z"/>
<path style="fill:#5f5f5f; stroke:none;" d="M109 269L110 270L109 269M123 269L124 270L123 269M133.333 269.667L133.667 270.333L133.333 269.667M102 270L103 271L102 270z"/>
<path style="fill:#909ccd; stroke:none;" d="M112 270L113 271L112 270M121 270L121 274L122 274L121 270z"/>
<path style="fill:#5f5f5f; stroke:none;" d="M172 270L173 271L172 270z"/>
<path style="fill:#909ccd; stroke:none;" d="M182 270L182 271L192 271L182 270z"/>
<path style="fill:#5f5f5f; stroke:none;" d="M372 270L373 271L372 270M106 271L107 272L106 271z"/>
<path style="fill:#909ccd; stroke:none;" d="M117 271L118 272L117 271M132 271L133 272L132 271M172 271L172 274L173 274L172 271M355 271L356 272L355 271M75 272L76 273L75 272z"/>
<path style="fill:#5f5f5f; stroke:none;" d="M108 272L109 273L108 272z"/>
<path style="fill:#909ccd; stroke:none;" d="M109 272L110 273L109 272z"/>
<path style="fill:#5f5f5f; stroke:none;" d="M129 272L130 273L129 272z"/>
<path style="fill:#909ccd; stroke:none;" d="M258 272L258 283L259 283L258 272M328 272L329 273L328 272M385 272L386 273L385 272z"/>
<path style="fill:#5f5f5f; stroke:none;" d="M75 273L76 274L75 273M88 273L91 275L91 274L88 273z"/>
<path style="fill:#909ccd; stroke:none;" d="M89 273L90 274L89 273z"/>
<path style="fill:#5f5f5f; stroke:none;" d="M94 273L95 274L94 273z"/>
<path style="fill:#909ccd; stroke:none;" d="M112 273L113 274L112 273z"/>
<path style="fill:#5f5f5f; stroke:none;" d="M122 273L123 274L122 273z"/>
<path style="fill:#909ccd; stroke:none;" d="M130 273L131 274L130 273M329 273L330 274L329 273M384 273L385 274L384 273M91 274L92 275L91 274M103 274L104 275L103 274z"/>
<path style="fill:#5f5f5f; stroke:none;" d="M104 274L105 275L104 274z"/>
<path style="fill:#909ccd; stroke:none;" d="M115 274L116 275L115 274M132 274L133 275L132 274M152.333 274.667L152.667 275.333L152.333 274.667M217 274L218 275L217 274M234 274L235 275L234 274z"/>
<path style="fill:#5f5f5f; stroke:none;" d="M331 274L332 275L331 274M92 275L92 276L95 276L92 275z"/>
<path style="fill:#909ccd; stroke:none;" d="M95 275L96 276L95 275M107 275L108 276L107 275z"/>
<path style="fill:#5f5f5f; stroke:none;" d="M108 275L109 276L108 275M132 275L133 276L132 275z"/>
<path style="fill:#909ccd; stroke:none;" d="M216 275L217 276L216 275z"/>
<path style="fill:#5f5f5f; stroke:none;" d="M332 275L333 276L332 275M73.6667 276.333L74.3333 276.667L73.6667 276.333M101 276L102 277L101 276z"/>
<path style="fill:#909ccd; stroke:none;" d="M112 276L113 277L112 276z"/>
<path style="fill:#5f5f5f; stroke:none;" d="M113 276L114 277L113 276M116 276L117 277L116 276M128 276L129 277L128 276M131 276L132 277L131 276M333 276L334 277L333 276M105 277L106 278L105 277z"/>
<path style="fill:#909ccd; stroke:none;" d="M106 277L107 278L106 277z"/>
<path style="fill:#5f5f5f; stroke:none;" d="M121 277L121 283L122 283L121 277z"/>
<path style="fill:#909ccd; stroke:none;" d="M128 277L129 278L128 277M87 278L88 279L87 278M91 278L92 279L91 278z"/>
<path style="fill:#5f5f5f; stroke:none;" d="M92 278L93 279L92 278M109 278L110 279L109 278z"/>
<path style="fill:#909ccd; stroke:none;" d="M110 278L111 279L110 278M56 279L57 280L56 279M86.3333 279.667L86.6667 280.333L86.3333 279.667M95 279L96 280L95 279z"/>
<path style="fill:#5f5f5f; stroke:none;" d="M96.6667 279.333L97.3333 279.667L96.6667 279.333M113 279L114 280L113 279z"/>
<path style="fill:#909ccd; stroke:none;" d="M71 280L72 281L71 280M101 280L102 281L101 280z"/>
<path style="fill:#5f5f5f; stroke:none;" d="M102 280L103 281L102 280M115.333 280.667L115.667 281.333L115.333 280.667M131 280L132 281L131 280z"/>
<path style="fill:#909ccd; stroke:none;" d="M73 281L72 283L73 281M103 281L104 282L103 281z"/>
<path style="fill:#5f5f5f; stroke:none;" d="M104 281L105 282L104 281z"/>
<path style="fill:#909ccd; stroke:none;" d="M131 281L132 282L131 281M171 281L172 282L171 281M375 281L376 282L375 281M70 282L71 283L70 282z"/>
<path style="fill:#5f5f5f; stroke:none;" d="M73 282L74 283L73 282M107 282L108 283L107 282z"/>
<path style="fill:#909ccd; stroke:none;" d="M115 282L116 283L115 282M126 282L127 283L126 282z"/>
<path style="fill:#5f5f5f; stroke:none;" d="M129 282L130 283L129 282z"/>
<path style="fill:#909ccd; stroke:none;" d="M130 282L131 283L130 282M374 282L375 283L374 282z"/>
<path style="fill:#5f5f5f; stroke:none;" d="M70 283L71 284L70 283M72.3333 283.667L72.6667 284.333L72.3333 283.667M87 283L86 285L87 283z"/>
<path style="fill:#909ccd; stroke:none;" d="M90 283L91 284L90 283z"/>
<path style="fill:#5f5f5f; stroke:none;" d="M91 283L89 284L89 285L91 283z"/>
<path style="fill:#909ccd; stroke:none;" d="M93 283L94 284L93 283z"/>
<path style="fill:#0a0a0a; stroke:none;" d="M94 283L95 284L94 283z"/>
<path style="fill:#909ccd; stroke:none;" d="M112 283L113 284L112 283z"/>
<path style="fill:#5f5f5f; stroke:none;" d="M113 283L114 284L113 283z"/>
<path style="fill:#909ccd; stroke:none;" d="M315 283L315 291L316 291L315 283M57 284L58 285L57 284M86 285L86 286L90 286L86 285z"/>
<path style="fill:#0a0a0a; stroke:none;" d="M91 284C86.8207 293.088 96.6055 299.185 105 299L93 284L91 284z"/>
<path style="fill:#5f5f5f; stroke:none;" d="M93.6667 284.333L94.3333 284.667L93.6667 284.333z"/>
<path style="fill:#909ccd; stroke:none;" d="M120 284L121 285L120 284z"/>
<path style="fill:#5f5f5f; stroke:none;" d="M127 284L128 285L127 284z"/>
<path style="fill:#909ccd; stroke:none;" d="M128 284L129 285L128 284z"/>
<path style="fill:#5f5f5f; stroke:none;" d="M70 285L70 289L71 289L70 285z"/>
<path style="fill:#909ccd; stroke:none;" d="M152 285L153 286L152 285M37 286L38 287L37 286z"/>
<path style="fill:#ffffff; stroke:none;" d="M86 286L87 288L88 288L89 286L86 286z"/>
<path style="fill:#5f5f5f; stroke:none;" d="M89 286L90 287L89 286M94 286L95 287L94 286M130 286L131 287L130 286M152 286L153 287L152 286z"/>
<path style="fill:#909ccd; stroke:none;" d="M170 286L171 287L170 286M323 286L324 287L323 286M332 286L333 287L332 286M58 287L59 288L58 287M88 287L89 290L88 287z"/>
<path style="fill:#5f5f5f; stroke:none;" d="M121 287L122 288L121 287M124 287L125 288L124 287z"/>
<path style="fill:#909ccd; stroke:none;" d="M125 287L126 288L125 287M335 287L336 288L335 287M344 287L345 288L344 287z"/>
<path style="fill:#5f5f5f; stroke:none;" d="M76 289L77 290L76 289M169 289L170 290L169 289M338 289L339 290L338 289z"/>
<path style="fill:#909ccd; stroke:none;" d="M59 290L60 291L59 290z"/>
<path style="fill:#5f5f5f; stroke:none;" d="M72 290L73 291L72 290z"/>
<path style="fill:#909ccd; stroke:none;" d="M74 290L75 291L74 290z"/>
<path style="fill:#ffffff; stroke:none;" d="M76 290L77 291L76 290M88 290L88 295L102 300L102 299L88 290z"/>
<path style="fill:#5f5f5f; stroke:none;" d="M89.3333 290.667L89.6667 291.333L89.3333 290.667M318 290L319 291L318 290z"/>
<path style="fill:#909ccd; stroke:none;" d="M345 290L346 291L345 290z"/>
<path style="fill:#5f5f5f; stroke:none;" d="M73 291L74 292L73 291z"/>
<path style="fill:#909ccd; stroke:none;" d="M76 291L77 292L76 291z"/>
<path style="fill:#5f5f5f; stroke:none;" d="M77 291L78 292L77 291z"/>
<path style="fill:#909ccd; stroke:none;" d="M98 291L99 292L98 291M226 291L227 292L226 291z"/>
<path style="fill:#5f5f5f; stroke:none;" d="M268 291L269 292L268 291M272 291L273 292L272 291z"/>
<path style="fill:#909ccd; stroke:none;" d="M314 291L315 292L314 291M38 292L39 293L38 292z"/>
<path style="fill:#5f5f5f; stroke:none;" d="M60 292L61 293L60 292M74 292L75 293L74 292z"/>
<path style="fill:#ffffff; stroke:none;" d="M77 292L78 293L77 292z"/>
<path style="fill:#5f5f5f; stroke:none;" d="M87 292L87 294L89 294L87 292z"/>
<path style="fill:#909ccd; stroke:none;" d="M88 292L89 293L88 292z"/>
<path style="fill:#5f5f5f; stroke:none;" d="M91 292L92 293L91 292z"/>
<path style="fill:#909ccd; stroke:none;" d="M151 292L152 293L151 292M75 293L76 294L75 293M77.6667 293.333L78.3333 293.667L77.6667 293.333M90 293L91 294L90 293M96 293L97 294L96 293M61 294L62 295L61 294M76 294L77 295L76 294z"/>
<path style="fill:#5f5f5f; stroke:none;" d="M92 294L93 295L92 294z"/>
<path style="fill:#909ccd; stroke:none;" d="M97 294L98 295L97 294M167 294L168 295L167 294M318 294L319 295L318 294M362 294L363 295L362 294M39 295L40 296L39 295z"/>
<path style="fill:#5f5f5f; stroke:none;" d="M79 295L80 296L79 295M89 295L90 296L89 295z"/>
<path style="fill:#909ccd; stroke:none;" d="M93 295L94 296L93 295z"/>
<path style="fill:#5f5f5f; stroke:none;" d="M98 295L99 296L98 295z"/>
<path style="fill:#909ccd; stroke:none;" d="M62 296L63 297L62 296z"/>
<path style="fill:#5f5f5f; stroke:none;" d="M80 296L81 297L80 296M82.3333 296.667L82.6667 297.333L82.3333 296.667M90 296L91 297L90 296M95 296L96 297L95 296M166 296L167 297L166 296z"/>
<path style="fill:#909ccd; stroke:none;" d="M320 296L321 297L320 296M92 297L93 298L92 297z"/>
<path style="fill:#5f5f5f; stroke:none;" d="M93 297L94 298L93 297M97 297L98 298L97 297z"/>
<path style="fill:#909ccd; stroke:none;" d="M322 297L323 298L322 297M63 298L64 299L63 298M84 298L85 299L84 298z"/>
<path style="fill:#5f5f5f; stroke:none;" d="M95 298L96 299L95 298z"/>
<path style="fill:#909ccd; stroke:none;" d="M99 298L100 299L99 298z"/>
<path style="fill:#5f5f5f; stroke:none;" d="M100 298L101 299L100 298M105 301L107 298L105 301z"/>
<path style="fill:#909ccd; stroke:none;" d="M107 298L108 299L107 298M325 298L326 299L325 298M41 299L42 300L41 299z"/>
<path style="fill:#5f5f5f; stroke:none;" d="M97 299L98 300L97 299M102 299L103 300L102 299z"/>
<path style="fill:#909ccd; stroke:none;" d="M109 299L110 300L109 299M111 299L112 300L111 299M329 299L330 300L329 299z"/>
<path style="fill:#5f5f5f; stroke:none;" d="M330 299L331 300L330 299M352 299L353 300L352 299M90 300L91 301L90 300z"/>
<path style="fill:#909ccd; stroke:none;" d="M101.667 300.333L102.333 300.667L101.667 300.333z"/>
<path style="fill:#ffffff; stroke:none;" d="M103 300L104 301L103 300z"/>
<path style="fill:#909ccd; stroke:none;" d="M104 300L105 301L104 300z"/>
<path style="fill:#5f5f5f; stroke:none;" d="M164 300L165 301L164 300M110 301L111 302L110 301z"/>
<path style="fill:#909ccd; stroke:none;" d="M112 302L110 303L110 304L112 302M104 303L105 304L104 303M89 304L90 305L89 304M162 304L163 305L162 304z"/>
<path style="fill:#5f5f5f; stroke:none;" d="M89.3333 305.667L89.6667 306.333L89.3333 305.667z"/>
<path style="fill:#909ccd; stroke:none;" d="M68 306L69 307L68 306M102 306L103 307L102 306M145 306L146 307L145 306M45 307L46 308L45 307M160 307L161 308L160 307M88 308L89 309L88 308M71 309L72 310L71 309z"/>
<path style="fill:#5f5f5f; stroke:none;" d="M88 309L89 310L88 309M101 309L102 310L101 309z"/>
<path style="fill:#909ccd; stroke:none;" d="M143 309L144 310L143 309M72 310L73 311L72 310M101.333 310.667L101.667 311.333L101.333 310.667z"/>
<path style="fill:#0a0a0a; stroke:none;" d="M103 313L106 310L103 313z"/>
<path style="fill:#909ccd; stroke:none;" d="M106 310L107 311L106 310M108 310L109 311L108 310z"/>
<path style="fill:#5f5f5f; stroke:none;" d="M109 310L110 311L109 310z"/>
<path style="fill:#0a0a0a; stroke:none;" d="M110 310L107 314L108 314L110 310z"/>
<path style="fill:#5f5f5f; stroke:none;" d="M157 310L158 311L157 310M105 311L106 312L105 311z"/>
<path style="fill:#909ccd; stroke:none;" d="M111 311L112 312L111 311M142 311L143 312L142 311M87 312L88 313L87 312z"/>
<path style="fill:#ffffff; stroke:none;" d="M91 315L97 314C94.318 312.259 92.792 312.305 91 315z"/>
<path style="fill:#5f5f5f; stroke:none;" d="M96 312L97 313L96 312z"/>
<path style="fill:#909ccd; stroke:none;" d="M105 312L106 313L105 312M107 312L107 313L110 313L110 312L107 312z"/>
<path style="fill:#ffffff; stroke:none;" d="M108 312L109 313L108 312z"/>
<path style="fill:#5f5f5f; stroke:none;" d="M109 314L112 312L109 314M50 313L51 314L50 313M87 313L88 314L87 313M102 313L103 314L102 313z"/>
<path style="fill:#909ccd; stroke:none;" d="M106 313L107 314L106 313z"/>
<path style="fill:#0a0a0a; stroke:none;" d="M111 313L112 314L111 313z"/>
<path style="fill:#909ccd; stroke:none;" d="M155 313L156 314L155 313z"/>
<path style="fill:#5f5f5f; stroke:none;" d="M86 314L88 317L86 314z"/>
<path style="fill:#909ccd; stroke:none;" d="M96 314L94 315L94 316L96 314M102 314L103 315L102 314M107 314L108 315L107 314z"/>
<path style="fill:#5f5f5f; stroke:none;" d="M112 314L113 315L112 314z"/>
<path style="fill:#909ccd; stroke:none;" d="M154 314L155 315L154 314z"/>
<path style="fill:#5f5f5f; stroke:none;" d="M96 315L97 316L96 315z"/>
<path style="fill:#0a0a0a; stroke:none;" d="M106 315L107 324L111 324C111.496 319.727 109.84 316.951 106 315z"/>
<path style="fill:#909ccd; stroke:none;" d="M153 315L154 316L153 315M77 316L78 317L77 316z"/>
<path style="fill:#ffffff; stroke:none;" d="M94.3333 316.667L94.6667 317.333L94.3333 316.667z"/>
<path style="fill:#5f5f5f; stroke:none;" d="M95 316L95 319L96 319L95 316M100 316L100 319L101 319L100 316z"/>
<path style="fill:#909ccd; stroke:none;" d="M105 316L106 317L105 316z"/>
<path style="fill:#5f5f5f; stroke:none;" d="M108 316L109 317L108 316z"/>
<path style="fill:#909ccd; stroke:none;" d="M137 316L138 317L137 316M79 317L80 318L79 317z"/>
<path style="fill:#5f5f5f; stroke:none;" d="M88.6667 317.333L89.3333 317.667L88.6667 317.333M105 317L106 318L105 317M136 317L137 318L136 317M90.6667 318.333L91.3333 318.667L90.6667 318.333z"/>
<path style="fill:#909ccd; stroke:none;" d="M94 318L95 319L94 318M110 318L111 319L110 318M56 319L57 320L56 319M91 319L92 320L91 319M95 319L96 320L95 319M100.333 319.667L100.667 320.333L100.333 319.667z"/>
<path style="fill:#ffffff; stroke:none;" d="M95 320L97 325L95 320z"/>
<path style="fill:#5f5f5f; stroke:none;" d="M101 320L102 321L101 320z"/>
<path style="fill:#909ccd; stroke:none;" d="M102 320L103 321L102 320z"/>
<path style="fill:#5f5f5f; stroke:none;" d="M111 320L112 321L111 320z"/>
<path style="fill:#909ccd; stroke:none;" d="M147 320L148 321L147 320z"/>
<path style="fill:#5f5f5f; stroke:none;" d="M94 321L95 322L94 321z"/>
<path style="fill:#ffffff; stroke:none;" d="M100.333 321.667L100.667 322.333L100.333 321.667z"/>
<path style="fill:#0a0a0a; stroke:none;" d="M101 321L101 325L102 325L103 325L101 321z"/>
<path style="fill:#909ccd; stroke:none;" d="M104 321L105 322L104 321z"/>
<path style="fill:#5f5f5f; stroke:none;" d="M105 321L106 322L105 321z"/>
<path style="fill:#909ccd; stroke:none;" d="M59 322L60 323L59 322M86 322L87 323L86 322z"/>
<path style="fill:#5f5f5f; stroke:none;" d="M92 322L93 323L92 322z"/>
<path style="fill:#909ccd; stroke:none;" d="M94 322L95 323L94 322z"/>
<path style="fill:#5f5f5f; stroke:none;" d="M96 322L97 323L96 322z"/>
<path style="fill:#909ccd; stroke:none;" d="M61 323L62 324L61 323z"/>
<path style="fill:#5f5f5f; stroke:none;" d="M88 323L89 324L88 323z"/>
<path style="fill:#909ccd; stroke:none;" d="M92 323L91 325L93 325L92 323z"/>
<path style="fill:#5f5f5f; stroke:none;" d="M94 323L95 324L94 323M100 323L100 326L101 326L102 323L100 323M106 323L105 325L106 323M108.667 323.333L109.333 323.667L108.667 323.333M111 323L112 324L111 323z"/>
<path style="fill:#909ccd; stroke:none;" d="M128 323L129 324L128 323M64 324L65 325L64 324M97 324L95 325L95 326L97 324z"/>
<path style="fill:#5f5f5f; stroke:none;" d="M103 324L102 326L104 326L103 324z"/>
<path style="fill:#0a0a0a; stroke:none;" d="M104 324L107 326L107 325L104 324z"/>
<path style="fill:#909ccd; stroke:none;" d="M106 324L107 325L106 324M125 324L126 325L125 324z"/>
<path style="fill:#5f5f5f; stroke:none;" d="M66 325L67 326L66 325M98 325L99 326L98 325z"/>
<path style="fill:#909ccd; stroke:none;" d="M101 325L102 326L101 325M107 325L108 326L107 325M124 325L125 326L124 325M137 325L138 326L137 325z"/>
<path style="fill:#5f5f5f; stroke:none;" d="M68 326L69 327L68 326z"/>
<path style="fill:#909ccd; stroke:none;" d="M104 326L105 327L104 326M116 326L117 327L116 326M73 328L74 329L73 328M130 328L131 329L130 328M74 329L75 330L74 329M76 330L77 331L76 330M125 330L126 331L125 330M122 331L123 332L122 331M86 332L87 333L86 332M116 332L117 333L116 332M93 333L94 334L93 333M95 333L95 334L99 334L95 333z"/>
<path style="fill:#5f5f5f; stroke:none;" d="M99 333L100 334L99 333M103 333L104 334L103 333z"/>
<path style="fill:#909ccd; stroke:none;" d="M104 333L104 334L108 334L104 333z"/>
<path style="fill:#0a0a0a; stroke:none;" d="M94 334L94 342L95 342L94 334z"/>
<path style="fill:#5f5f5f; stroke:none;" d="M95 334L95 338L96 338L95 334z"/>
<path style="fill:#0a0a0a; stroke:none;" d="M100 334L100 341L101 341L100 334z"/>
<path style="fill:#909ccd; stroke:none;" d="M95.3333 339.667L95.6667 340.333L95.3333 339.667z"/>
<path style="fill:#5f5f5f; stroke:none;" d="M95 341L96 342L95 341M100.333 341.667L100.667 342.333L100.333 341.667z"/>
<path style="fill:#909ccd; stroke:none;" d="M95 342L96 343L95 342M100.333 343.667L100.667 344.333L100.333 343.667z"/>
</svg>
