<svg t="1706759539250" class="icon" viewBox="0 0 1024 1024" version="1.1" xmlns="http://www.w3.org/2000/svg" p-id="8354" width="200" height="200"><path d="M667.087238 610.255238l27.745524 32.377905L694.857143 707.047619h-98.084572v170.666667H694.857143l-0.170667 48.761904H219.428571a73.142857 73.142857 0 0 1-55.539809-120.734476l167.545905-195.486476A315.489524 315.489524 0 0 0 499.248762 658.285714a315.489524 315.489524 0 0 0 167.838476-48.030476zM816.201143 658.285714v97.52381h97.523809v73.142857h-97.523809v97.523809h-73.142857v-97.523809h-97.52381v-73.142857h97.52381v-97.52381h73.142857z m-316.952381-560.761904c134.656 0 243.809524 109.153524 243.809524 243.809523s-109.153524 243.809524-243.809524 243.809524-243.809524-109.153524-243.809524-243.809524 109.153524-243.809524 243.809524-243.809523z" p-id="8355" fill="#ffffff"></path></svg>