<svg t="1706518081016" class="icon" viewBox="0 0 1024 1024" version="1.1" xmlns="http://www.w3.org/2000/svg" p-id="4192" width="200" height="200"><path d="M505.344 0C332.288 0 192 140.288 192 315.904c0 173.056 169.984 391.68 315.904 569.856 143.36-181.248 315.904-394.24 315.904-569.856C821.248 140.288 680.96 0 505.344 0z m0 524.288C389.12 524.288 296.96 429.568 296.96 315.904 296.96 199.68 391.68 108.032 504.832 108.032c116.224 0 207.872 94.72 207.872 207.872 3.072 116.224-91.136 208.384-207.36 208.384z" fill="#aaa" p-id="4193"></path><path d="M386.56 315.904c0 32.256 13.312 61.952 35.328 83.968C443.392 421.376 476.16 435.2 505.856 435.2c32.256 0 61.952-13.312 83.968-35.328 21.504-21.504 35.328-54.272 35.328-83.968 0-32.256-13.312-61.952-35.328-83.968-21.504-21.504-54.272-35.328-83.968-35.328-32.256 0-61.952 13.312-83.968 35.328-22.016 22.016-35.328 51.712-35.328 83.968zM507.904 1024c-202.752 0-408.064-65.024-408.064-186.368 0-67.584 67.584-124.416 186.368-159.232 21.504-5.632 43.008 5.632 48.64 27.136 5.632 21.504-5.632 43.008-27.136 48.64-89.088 24.064-129.536 59.392-129.536 83.968 0 43.008 129.536 108.032 332.288 108.032s332.288-65.024 332.288-108.032c0-24.064-48.64-61.952-137.728-86.528-21.504-5.632-32.256-27.136-27.136-48.64 5.632-21.504 27.136-32.256 48.64-27.136 124.416 32.256 197.12 91.648 197.12 162.304-7.68 120.832-212.992 185.856-415.744 185.856z" fill="#aaa" p-id="4194"></path></svg>