<?xml version="1.0" standalone="no"?>
<!DOCTYPE svg PUBLIC "-//W3C//DTD SVG 20010904//EN"
 "http://www.w3.org/TR/2001/REC-SVG-20010904/DTD/svg10.dtd">
<svg version="1.0" xmlns="http://www.w3.org/2000/svg"
 width="200.000000pt" height="200.000000pt" viewBox="0 0 200.000000 200.000000"
 preserveAspectRatio="xMidYMid meet">
<metadata>
Created by potrace 1.14, written by Peter Selinger 2001-2017
</metadata>
<g transform="translate(0.000000,200.000000) scale(0.100000,-0.100000)"
fill="#000000" stroke="none">
<path d="M1243 1678 l-201 -203 -7 -55 c-6 -51 -1 -786 5 -820 7 -40 8 -40
430 -40 332 0 410 3 419 14 8 9 10 130 9 427 l-3 414 -210 5 -210 5 -3 228
c-2 175 -5 227 -15 227 -7 0 -103 -91 -214 -202z"/>
<path d="M102 1422 c-10 -7 -12 -100 -10 -433 l3 -424 210 -3 c115 -1 213 -6
217 -10 4 -4 8 -106 8 -226 l1 -218 31 28 c116 109 168 165 162 176 -4 6 -3 8
4 4 13 -8 175 152 167 165 -4 5 0 6 8 3 10 -3 22 9 36 39 20 42 21 56 21 463
0 313 -3 423 -12 432 -14 14 -824 17 -846 4z"/>
</g>
</svg>
