<svg height="512" viewBox="0 0 512 512" width="512" xmlns="http://www.w3.org/2000/svg"><path d="m72 140h368a32 32 0 0 1 32 32v208a0 0 0 0 1 0 0h-432a0 0 0 0 1 0 0v-208a32 32 0 0 1 32-32z" fill="#353744"/><path d="m72 140h336a32 32 0 0 1 32 32v208a0 0 0 0 1 0 0h-400a0 0 0 0 1 0 0v-208a32 32 0 0 1 32-32z" fill="#55525b"/><path d="m72 380h368a32 32 0 0 1 32 32v8a0 0 0 0 1 0 0h-432a0 0 0 0 1 0 0v-8a32 32 0 0 1 32-32z" fill="#a5c3dc" transform="matrix(-1 0 0 -1 512 800)"/><path d="m40 380h400a0 0 0 0 1 0 0v8a32 32 0 0 1 -32 32h-336a32 32 0 0 1 -32-32v-8a0 0 0 0 1 0 0z" fill="#d7e6e6"/><path d="m208 420h72v32h-72z" fill="#aac3d7"/><path d="m208 436h48v16h-48z" fill="#d7e6e6"/><path d="m176 452h128a16 16 0 0 1 16 16v8a0 0 0 0 1 0 0h-160a0 0 0 0 1 0 0v-8a16 16 0 0 1 16-16z" fill="#d7e6e6"/><path d="m288 452h16a16 16 0 0 1 16 16v8a0 0 0 0 1 0 0h-48a0 0 0 0 1 0 0v-8a16 16 0 0 1 16-16z" fill="#aac3d7"/><path d="m392 380h-304v-312a32 32 0 0 1 32-32h192l80 72z" fill="#6ea5d7"/><circle cx="328" cy="224" fill="#6478b9" r="38.667"/><circle cx="328" cy="301.333" fill="#6478b9" r="38.667"/><path d="m328 236a7.976 7.976 0 0 1 -5.657-2.343l-16-16a8 8 0 0 1 11.314-11.314l10.343 10.344 26.343-26.344a8 8 0 0 1 11.314 11.314l-32 32a7.976 7.976 0 0 1 -5.657 2.343z" fill="#d7e6f0"/><g fill="#6478b9"><rect height="24" rx="12" width="149.333" x="122.667" y="212"/><rect height="24" rx="12" width="64" x="232" y="76"/><rect height="24" rx="12" width="96" x="232" y="124"/><path d="m312 36v40a32 32 0 0 0 32 32h48z"/></g><path d="m328 332h112a0 0 0 0 1 0 0v96a0 0 0 0 1 0 0h-128a0 0 0 0 1 0 0v-80a16 16 0 0 1 16-16z" fill="#f0915a" transform="matrix(-1 0 0 -1 752 760)"/><path d="m408 300h32a0 0 0 0 1 0 0v16a16 16 0 0 1 -16 16 16 16 0 0 1 -16-16v-16a0 0 0 0 1 0 0z" fill="#fab991" transform="matrix(-1 0 0 -1 848 632)"/><path d="m376 300h32a0 0 0 0 1 0 0v16a16 16 0 0 1 -16 16 16 16 0 0 1 -16-16v-16a0 0 0 0 1 0 0z" fill="#fab991" transform="matrix(-1 0 0 -1 784 632)"/><path d="m344 300h32a0 0 0 0 1 0 0v16a16 16 0 0 1 -16 16 16 16 0 0 1 -16-16v-16a0 0 0 0 1 0 0z" fill="#fab991" transform="matrix(-1 0 0 -1 720 632)"/><path d="m312 228h32a0 0 0 0 1 0 0v88a16 16 0 0 1 -16 16 16 16 0 0 1 -16-16v-88a0 0 0 0 1 0 0z" fill="#fab991" transform="matrix(-1 0 0 -1 656 560)"/><path d="m312 428h112v24h-112z" fill="#f0915a" transform="matrix(-1 0 0 -1 736 880)"/><path d="m312 428h56a0 0 0 0 1 0 0v24a0 0 0 0 1 0 0h-32a24 24 0 0 1 -24-24 0 0 0 0 1 0 0z" fill="#fab991" transform="matrix(-1 0 0 -1 680 880)"/><path d="m280 332a32 32 0 0 1 32 32v56a8 8 0 0 1 -8 8 24 24 0 0 1 -24-24v-72a0 0 0 0 1 0 0z" fill="#fab991" transform="matrix(-1 0 0 -1 592 760)"/><path d="m312 452h112a16 16 0 0 1 16 16v8a0 0 0 0 1 0 0h-144a0 0 0 0 1 0 0v-8a16 16 0 0 1 16-16z" fill="#55525b"/><path d="m368 452h56a16 16 0 0 1 16 16v8a0 0 0 0 1 0 0h-72a0 0 0 0 1 0 0v-24a0 0 0 0 1 0 0z" fill="#353744"/><circle cx="328" cy="244" fill="#f0915a" r="8"/><path d="m280 340a18.667 18.667 0 0 1 18.667 18.667 5.333 5.333 0 0 1 -5.334 5.333h-13.333a0 0 0 0 1 0 0v-24a0 0 0 0 1 0 0z" fill="#f0915a"/><circle cx="168" cy="116" fill="#6478b9" r="48"/><circle cx="168" cy="105.333" fill="#6ea5d7" r="18.667"/><rect fill="#6478b9" height="24" rx="12" width="149.333" x="122.667" y="289.333"/><path d="m184 124h-32a16 16 0 0 0 -16 15.974 39.959 39.959 0 0 0 64 0 16 16 0 0 0 -16-15.974z" fill="#6ea5d7"/></svg>